/* XPM */
static char *_287a5c051e5454fdbbd9b3bcab225f8[] = {
/* columns rows colors chars-per-pixel */
"64 64 4 1 ",
"  c #775C2F",
". c #91703B",
"X c #BC954B",
"o c #E0B159",
/* pixels */
"oooooooooooooooooooooooooooooooooooooooooooooooooooooooooooooooo",
"ooXXXXoooooooooooooooooooooooooooooooooooooooooooooooooooooooooo",
"oXXXXXXooooooooooooXXXoooooooooooooooooooooooooooooooooooooooooo",
"XXXXXXXXooooooooooXXXXXoooo   ooooooooooooooooooooooooooo   oooo",
"XXXXXXXXooooooooooXXXXXooo  ...ooooooooooo      oooooooo  ...ooo",
"XXXXXXXXoooooooooooXXXoooo.....oooooooo            ooooo.....ooo",
"XXXXXXXoooooooooooooooooooo...oooooooo           ...ooooo...oooo",
"oXXXXXXooo        oooooooooooooooooooo         .....oooooooooooo",
"oooXXXoo            ooooooooooooooooo       .........ooooooooooo",
"ooooooo         .....oooooooooooooooo    ............ooooooooooo",
"ooooooo       .......ooooooooXXXooooo   .............ooooooooooo",
"oooooo      .........ooooooXXXXXXXooo   .............ooooooooooo",
"oooooo     ..........ooooooXXXXXXXooo  ..............oooooXXXooo",
"oooooo     ..........oooooXXXXXXXXXooo..............oooooXXXXXoo",
"ooooooo   ...........oooooXXXXXXXXXoooo.............ooooXXXXXXXo",
"ooooooo   ..........ooooooXXXXXXXXXoooooo..........oooooXXXXXXXo",
"oooooooo  ........oooooooooXXXXXXXoooooooooo.....oooooooXXXXXXXo",
"ooooooooooo.....oooooooooooXXXXXXXoooooooooooooooooooooooXXXXXoo",
"oooooooooooooooooooooooooooooXXXoooo   oooooooooooooooooooXXXooo",
"oooooooooooooooXXXooooooooooooooooo  ...ooooooooooXXoooooooooooo",
"ooo   oooooooXXXXXXXooooooooooooooo.....oooooooooXXXXooooooooooo",
"oo  ...ooooooXXXXXXXoooooooooooooooo...ooooooooooXXXXooooooooooo",
"oo.....oooooXXXXXXXXXoooooooooooooooooooooooooooooXXoooooooooooo",
"ooo...ooooooXXXXXXXXXooooo       ooooooooooooooooooooooooooooooo",
"ooooooooooooXXXXXXXXXooo            ooooooooXXXoooooooo    ooooo",
"oooooooooooooXXXXXXXooo              oooooXXXXXXXoooo        ooo",
"oooooooooooooXXXXXXXooo         ......ooooXXXXXXXooo    ......oo",
"oooooooooooooooXXXooooo       ........oooXXXXXXXXXoo   .......oo",
"oooooooooooooooooooooo     ............ooXXXXXXXXXoo  ........oo",
"oooooooooooooooooooooo    .............ooXXXXXXXXXoo  ........oo",
"oooooooooooooooooooooo    .............oooXXXXXXXoooo .......ooo",
"oooooo    oooooooooooo   ..............oooXXXXXXXoooooo.....oooo",
"oooo        oooooooooo   ..............oooooXXXooooooooooooooooo",
"oooo      ..ooooooooooo  ..............ooooooooooooooooooooooooo",
"ooo    ......oooooooooo  .............oooooooooooooooooooooooooo",
"ooo   .......ooooooooooo ............oooooooooooooooooooooXXXooo",
"ooo  ........ooooooooooooo...........ooooooooo   ooooooooXXXXXoo",
"ooo .........oooooooooooooooo......oooooooooo  ...ooooooXXXXXXXo",
"ooo .........oooooooooooooooooooooooooooooooo.....ooooooXXXXXXXo",
"oooo........oooooooooooooooooooooooooXXXoooooo...oooooooXXXXXXXo",
"oooooo.....oooooooo   ooooooooooooooXXXXXooooooooooooooooXXXXXoo",
"oooooooooooooooooo  ...ooooooooooooXXXXXXXooooooooooooooooXXXooo",
"oooooooooooooooooo.....ooooooooooooXXXXXXXoooooooooooooooooooooo",
"ooooooooooooooooooo...oooooooooooooXXXXXXXoooooooo    oooooooooo",
"oooXXXooooooooooooooooooooooooooooooXXXXXooooooo        oooooooo",
"ooXXXXXooooooooooooooooooooooooooooooXXXoooooooo      ..oooooooo",
"oXXXXXXXooooooooooooooooooooooooooooooooooooooo    ......ooooooo",
"oXXXXXXXoooooooooooooXXooooooo        ooooooooo   .......ooooooo",
"oXXXXXXXooooooooooooXXXXoooo            ooooooo  ........ooooooo",
"ooXXXXXoooooooooooooXXXXooo         ....ooooooo .........ooooooo",
"oooXXXoooooooooooooooXXoooo      ........oooooo .........ooooooo",
"oooooooooooo    ooooooooooo    ..........ooooooo........oooooooo",
"ooooooooo          oooooooo  ............ooooooooo.....ooooooooo",
"ooooooooo        ..oooooooo .............ooooooooooooooooooooooo",
"oooooooo     .......oooooooo............ooooooXXXooooooooooooooo",
"oooooooo    ........oooooooo............ooooXXXXXXXooooooooooooo",
"oooooooo   .........oooooooooo.........oooooXXXXXXXooooooooooooo",
"oooooooo   .........ooooXXXoooo......ooooooXXXXXXXXXoooooooooooo",
"ooXXoooo  ..........oooXXXXXoooooooooooooooXXXXXXXXXooooo   oooo",
"oXXXXoooo .........oooXXXXXXXooooooooooooooXXXXXXXXXoooo  ...ooo",
"oXXXXooooooo......ooooXXXXXXXoooooooooooooooXXXXXXXooooo.....ooo",
"ooXXooooooooooooooooooXXXXXXXoooooooooooooooXXXXXXXoooooo...oooo",
"oooooooooooooooooooooooXXXXXooooooooooooooooooXXXooooooooooooooo",
"ooooooooooooooooooooooooXXXooooooooooooooooooooooooooooooooooooo"
};
