/* XPM */
static char *ec8e84f785004f65c12fb1f32a896afd[] = {
/* columns rows colors chars-per-pixel */
"64 64 6 1 ",
"  c #AD8D1C",
". c #B59524",
"X c #C19F20",
"o c #C9A728",
"O c #DDB830",
"+ c #EFC734",
/* pixels */
"oooooooooooooooo................oooooooooooooooo................",
"oooooooooooooooo................oooooooooooooooo................",
"ooooooOOOOoooooo......oooo......ooooooOOOOoooooo......oooo......",
"ooooOOOOOOOOoooo....oooooooo....ooooOOOOOOOOoooo....oooooooo....",
"oooOOOOOOOOOOooo...oooooooooo...oooOOOOOOOOOOooo...oooooooooo...",
"oooOOOOOOOOOOooo...oooooooooo...oooOOOOOOOOOOooo...oooooooooo...",
"ooOOOOOOOOOOOOoo..oooooooooooo..ooOOOOOOOOOOOOoo..oooooooooooo..",
"ooOOOOOOOOOOOOoo..oooooooooooo..ooOOOOOOOOOOOOoo..oooooooooooo..",
"ooOOOOOOOOOOOOoo..oooooooooooo..ooOOOOOOOOOOOOoo..oooooooooooo..",
"ooOOOOOOOOOOOOoo..oooooooooooo..ooOOOOOOOOOOOOoo..oooooooooooo..",
"oooOOOOOOOOOOooo...oooooooooo...oooOOOOOOOOOOooo...oooooooooo...",
"oooOOOOOOOOOOooo...oooooooooo...oooOOOOOOOOOOooo...oooooooooo...",
"ooooOOOOOOOOoooo....oooooooo....ooooOOOOOOOOoooo....oooooooo....",
"ooooooOOOOoooooo......oooo......ooooooOOOOoooooo......oooo......",
"oooooooooooooooo................oooooooooooooooo................",
"oooooooooooooooo................oooooooooooooooo................",
"................OOOOOOOOOOOOOOOO                oooooooooooooooo",
"................OOOOOOOOOOOOOOOO                oooooooooooooooo",
"......oooo......OOOOOO++++OOOOOO      XXXX      ooooooOOOOoooooo",
"....oooooooo....OOOO++++++++OOOO    XXXXXXXX    ooooOOOOOOOOoooo",
"...oooooooooo...OOO++++++++++OOO   XXXXXXXXXX   oooOOOOOOOOOOooo",
"...oooooooooo...OOO++++++++++OOO   XXXXXXXXXX   oooOOOOOOOOOOooo",
"..oooooooooooo..OO++++++++++++OO  XXXXXXXXXXXX  ooOOOOOOOOOOOOoo",
"..oooooooooooo..OO++++++++++++OO  XXXXXXXXXXXX  ooOOOOOOOOOOOOoo",
"..oooooooooooo..OO++++++++++++OO  XXXXXXXXXXXX  ooOOOOOOOOOOOOoo",
"..oooooooooooo..OO++++++++++++OO  XXXXXXXXXXXX  ooOOOOOOOOOOOOoo",
"...oooooooooo...OOO++++++++++OOO   XXXXXXXXXX   oooOOOOOOOOOOooo",
"...oooooooooo...OOO++++++++++OOO   XXXXXXXXXX   oooOOOOOOOOOOooo",
"....oooooooo....OOOO++++++++OOOO    XXXXXXXX    ooooOOOOOOOOoooo",
"......oooo......OOOOOO++++OOOOOO      XXXX      ooooooOOOOoooooo",
"................OOOOOOOOOOOOOOOO                oooooooooooooooo",
"................OOOOOOOOOOOOOOOO                oooooooooooooooo",
"oooooooooooooooo................oooooooooooooooo................",
"oooooooooooooooo................oooooooooooooooo................",
"ooooooOOOOoooooo......oooo......ooooooOOOOoooooo......oooo......",
"ooooOOOOOOOOoooo....oooooooo....ooooOOOOOOOOoooo....oooooooo....",
"oooOOOOOOOOOOooo...oooooooooo...oooOOOOOOOOOOooo...oooooooooo...",
"oooOOOOOOOOOOooo...oooooooooo...oooOOOOOOOOOOooo...oooooooooo...",
"ooOOOOOOOOOOOOoo..oooooooooooo..ooOOOOOOOOOOOOoo..oooooooooooo..",
"ooOOOOOOOOOOOOoo..oooooooooooo..ooOOOOOOOOOOOOoo..oooooooooooo..",
"ooOOOOOOOOOOOOoo..oooooooooooo..ooOOOOOOOOOOOOoo..oooooooooooo..",
"ooOOOOOOOOOOOOoo..oooooooooooo..ooOOOOOOOOOOOOoo..oooooooooooo..",
"oooOOOOOOOOOOooo...oooooooooo...oooOOOOOOOOOOooo...oooooooooo...",
"oooOOOOOOOOOOooo...oooooooooo...oooOOOOOOOOOOooo...oooooooooo...",
"ooooOOOOOOOOoooo....oooooooo....ooooOOOOOOOOoooo....oooooooo....",
"ooooooOOOOoooooo......oooo......ooooooOOOOoooooo......oooo......",
"oooooooooooooooo................oooooooooooooooo................",
"oooooooooooooooo................oooooooooooooooo................",
"                oooooooooooooooo................oooooooooooooooo",
"                oooooooooooooooo................oooooooooooooooo",
"      XXXX      ooooooOOOOoooooo......oooo......ooooooOOOOoooooo",
"    XXXXXXXX    ooooOOOOOOOOoooo....oooooooo....ooooOOOOOOOOoooo",
"   XXXXXXXXXX   oooOOOOOOOOOOooo...oooooooooo...oooOOOOOOOOOOooo",
"   XXXXXXXXXX   oooOOOOOOOOOOooo...oooooooooo...oooOOOOOOOOOOooo",
"  XXXXXXXXXXXX  ooOOOOOOOOOOOOoo..oooooooooooo..ooOOOOOOOOOOOOoo",
"  XXXXXXXXXXXX  ooOOOOOOOOOOOOoo..oooooooooooo..ooOOOOOOOOOOOOoo",
"  XXXXXXXXXXXX  ooOOOOOOOOOOOOoo..oooooooooooo..ooOOOOOOOOOOOOoo",
"  XXXXXXXXXXXX  ooOOOOOOOOOOOOoo..oooooooooooo..ooOOOOOOOOOOOOoo",
"   XXXXXXXXXX   oooOOOOOOOOOOooo...oooooooooo...oooOOOOOOOOOOooo",
"   XXXXXXXXXX   oooOOOOOOOOOOooo...oooooooooo...oooOOOOOOOOOOooo",
"    XXXXXXXX    ooooOOOOOOOOoooo....oooooooo....ooooOOOOOOOOoooo",
"      XXXX      ooooooOOOOoooooo......oooo......ooooooOOOOoooooo",
"                oooooooooooooooo................oooooooooooooooo",
"                oooooooooooooooo................oooooooooooooooo"
};
