/* XPM */
static char *_5dddb1ec34b48a9857a3c0cd4c37661[] = {
/* columns rows colors chars-per-pixel */
"64 64 7 1 ",
"  c #832825",
". c #8B302D",
"X c #9B302D",
"o c #A33835",
"O c #B7403C",
"+ c #B8403D",
"@ c #D04A46",
/* pixels */
"oooooooooooooooo................oooooooooooooooo................",
"oooooooooooooooo................oooooooooooooooo................",
"ooooooOOOOoooooo......oooo......ooooooOOOOoooooo......oooo......",
"ooooOOOOOOOOoooo....oooooooo....ooooOOOOOOOOoooo....oooooooo....",
"oooOOOOOOOOOOooo...oooooooooo...oooOOOOOOOOOOooo...oooooooooo...",
"oooOOOOOOOOOOooo...oooooooooo...oooOOOOOOOOOOooo...oooooooooo...",
"ooOOOOOOOOOOOOoo..oooooooooooo..ooOOOOOOOOOOOOoo..oooooooooooo..",
"ooOOOOOOOOOOOOoo..oooooooooooo..ooOOOOOOOOOOOOoo..oooooooooooo..",
"ooOOOOOOOOOOOOoo..oooooooooooo..ooOOOOOOOOOOOOoo..oooooooooooo..",
"ooOOOOOOOOOOOOoo..oooooooooooo..ooOOOOOOOOOOOOoo..oooooooooooo..",
"oooOOOOOOOOOOooo...oooooooooo...oooOOOOOOOOOOooo...oooooooooo...",
"oooOOOOOOOOOOooo...oooooooooo...oooOOOOOOOOOOooo...oooooooooo...",
"ooooOOOOOOOOoooo....oooooooo....ooooOOOOOOOOoooo....oooooooo....",
"ooooooOOOOoooooo......oooo......ooooooOOOOoooooo......oooo......",
"oooooooooooooooo................oooooooooooooooo................",
"oooooooooooooooo................oooooooooooooooo................",
"................++++++++++++++++                oooooooooooooooo",
"................++++++++++++++++                oooooooooooooooo",
"......oooo......++++++@@@@++++++      XXXX      ooooooOOOOoooooo",
"....oooooooo....++++@@@@@@@@++++    XXXXXXXX    ooooOOOOOOOOoooo",
"...oooooooooo...+++@@@@@@@@@@+++   XXXXXXXXXX   oooOOOOOOOOOOooo",
"...oooooooooo...+++@@@@@@@@@@+++   XXXXXXXXXX   oooOOOOOOOOOOooo",
"..oooooooooooo..++@@@@@@@@@@@@++  XXXXXXXXXXXX  ooOOOOOOOOOOOOoo",
"..oooooooooooo..++@@@@@@@@@@@@++  XXXXXXXXXXXX  ooOOOOOOOOOOOOoo",
"..oooooooooooo..++@@@@@@@@@@@@++  XXXXXXXXXXXX  ooOOOOOOOOOOOOoo",
"..oooooooooooo..++@@@@@@@@@@@@++  XXXXXXXXXXXX  ooOOOOOOOOOOOOoo",
"...oooooooooo...+++@@@@@@@@@@+++   XXXXXXXXXX   oooOOOOOOOOOOooo",
"...oooooooooo...+++@@@@@@@@@@+++   XXXXXXXXXX   oooOOOOOOOOOOooo",
"....oooooooo....++++@@@@@@@@++++    XXXXXXXX    ooooOOOOOOOOoooo",
"......oooo......++++++@@@@++++++      XXXX      ooooooOOOOoooooo",
"................++++++++++++++++                oooooooooooooooo",
"................++++++++++++++++                oooooooooooooooo",
"oooooooooooooooo................oooooooooooooooo................",
"oooooooooooooooo................oooooooooooooooo................",
"ooooooOOOOoooooo......oooo......ooooooOOOOoooooo......oooo......",
"ooooOOOOOOOOoooo....oooooooo....ooooOOOOOOOOoooo....oooooooo....",
"oooOOOOOOOOOOooo...oooooooooo...oooOOOOOOOOOOooo...oooooooooo...",
"oooOOOOOOOOOOooo...oooooooooo...oooOOOOOOOOOOooo...oooooooooo...",
"ooOOOOOOOOOOOOoo..oooooooooooo..ooOOOOOOOOOOOOoo..oooooooooooo..",
"ooOOOOOOOOOOOOoo..oooooooooooo..ooOOOOOOOOOOOOoo..oooooooooooo..",
"ooOOOOOOOOOOOOoo..oooooooooooo..ooOOOOOOOOOOOOoo..oooooooooooo..",
"ooOOOOOOOOOOOOoo..oooooooooooo..ooOOOOOOOOOOOOoo..oooooooooooo..",
"oooOOOOOOOOOOooo...oooooooooo...oooOOOOOOOOOOooo...oooooooooo...",
"oooOOOOOOOOOOooo...oooooooooo...oooOOOOOOOOOOooo...oooooooooo...",
"ooooOOOOOOOOoooo....oooooooo....ooooOOOOOOOOoooo....oooooooo....",
"ooooooOOOOoooooo......oooo......ooooooOOOOoooooo......oooo......",
"oooooooooooooooo................oooooooooooooooo................",
"oooooooooooooooo................oooooooooooooooo................",
"                oooooooooooooooo................oooooooooooooooo",
"                oooooooooooooooo................oooooooooooooooo",
"      XXXX      ooooooOOOOoooooo......oooo......ooooooOOOOoooooo",
"    XXXXXXXX    ooooOOOOOOOOoooo....oooooooo....ooooOOOOOOOOoooo",
"   XXXXXXXXXX   oooOOOOOOOOOOooo...oooooooooo...oooOOOOOOOOOOooo",
"   XXXXXXXXXX   oooOOOOOOOOOOooo...oooooooooo...oooOOOOOOOOOOooo",
"  XXXXXXXXXXXX  ooOOOOOOOOOOOOoo..oooooooooooo..ooOOOOOOOOOOOOoo",
"  XXXXXXXXXXXX  ooOOOOOOOOOOOOoo..oooooooooooo..ooOOOOOOOOOOOOoo",
"  XXXXXXXXXXXX  ooOOOOOOOOOOOOoo..oooooooooooo..ooOOOOOOOOOOOOoo",
"  XXXXXXXXXXXX  ooOOOOOOOOOOOOoo..oooooooooooo..ooOOOOOOOOOOOOoo",
"   XXXXXXXXXX   oooOOOOOOOOOOooo...oooooooooo...oooOOOOOOOOOOooo",
"   XXXXXXXXXX   oooOOOOOOOOOOooo...oooooooooo...oooOOOOOOOOOOooo",
"    XXXXXXXX    ooooOOOOOOOOoooo....oooooooo....ooooOOOOOOOOoooo",
"      XXXX      ooooooOOOOoooooo......oooo......ooooooOOOOoooooo",
"                oooooooooooooooo................oooooooooooooooo",
"                oooooooooooooooo................oooooooooooooooo"
};
