/* XPM */
static char *d76d3889b40546b18b7a75de6a3e967b[] = {
/* columns rows colors chars-per-pixel */
"64 64 22 1 ",
"  c black",
". c #202020",
"X c #2C2C2C",
"o c gray22",
"O c gray25",
"+ c #484848",
"@ c #4C4C4C",
"# c gray33",
"$ c gray36",
"% c #646464",
"& c gray44",
"* c #7C7C7C",
"= c #0066C7",
"- c gray55",
"; c #989898",
": c gray66",
"> c #B4B4B4",
", c #C0C0C0",
"< c #D0D0D0",
"1 c gainsboro",
"2 c #ECECEC",
"3 c gray99",
/* pixels */
"                    ::11<<<,,,>>::;;--*&&%#+##                  ",
"                  ,33222111<<<,,>>:;&,-*&%#+OooX                ",
"                 2333322233311<,,>>:;;-**+#+Ooo.X               ",
"                12233333321<,,>>::;-**&%%%%oOoX.XX              ",
"                112233322<<<,,:<::;-**&%%#O+XX..XX              ",
"                ,11323322211<<,,>>:;-*&%#+OXo..XXX              ",
"                 ,,32233223311<,,::;-*&%#OoX...XX               ",
"                   >22333321<,:>;-*&%#+OXoX....                 ",
"                    >,,33321<,>:;-*&%#+OoXX..X                  ",
"                     ;,23321<,>:;-*&#%+OoX..X                   ",
"                     ;,23321<,>:;-*&%#+OoX..X                   ",
"                     ;,33321<,>:-:*&%#+OXo..X                   ",
"                     ;,33321<,>-;:*&%#+OoX..X                   ",
"                     ;,33321<,>:;-*&%O%OoX..X                   ",
"                     ;,33321<,>:;-*&%#%OoX..X                   ",
"                     ;,221<,>:;-*&%#+O+X....X                   ",
"                     ;-:>::--*&&%%#+OoX......                   ",
"                      13123321<,>:;-*&#%+o.X                    ",
"                     ,133331<,>:;-*&%#+#oXX.o                   ",
"                     ,133321<<>:;*-&%#+OoX..X                   ",
"                     ;,33321>2>:;-&*%#+OoX..X                   ",
"                     ;,33321,2>:;-*&%#+OXo..X                   ",
"                     ;,33321<<>:;-*&#%+OoX .X                   ",
"                     ;,33321<,>:;-*&%#+X+X..X                   ",
"                     ;:3332>3,>:;-*&%#+OoX..X                   ",
"                     ;133321<,>:;*;&%#+oOX..X                   ",
"                     ;,33321>1>:;-*&%+#OoX..X                   ",
"                     ;,33321<,>:-;*&%#+OXo..X                   ",
"                     *;121<,>:;-*&%#+OoX.....                   ",
"                      *;:;--**&&%%#+OoX..                       ",
"                     :<33333,1<,>:;-*&%#+oXXo                   ",
"                     ;,333212,>:;-*&%#+OoX..X                   ",
"                     ;,33321<,>:-;*%*#+OXO .X                   ",
"                     ;,33321>2>:;-*&%#O+oX..X                   ",
"                     ;,33131<,>:;-*&%+#Oo.X.X                   ",
"                     ;,32321>,:>;*-&%##OoX...                   ",
"                     ;,3332>3,>:;-*&%#+oOX..X                   ",
"                     ;,33323<,>:;-&*%#+OoX..X                   ",
"                     ;,33131<,>:-;*&%#O+Xo..X                   ",
"                     ;,33321<>1:;-*&#%+OoX..X                   ",
"                     ;,3332<2,>:;-&*%#+OXo..X                   ",
"                     *,23221<,>;;-*&%+#OoX..o                   ",
"                      :<1,,,>:;&;&%#+OoX....                    ",
"                     :2>,<,;-*&#%%#+OoX......                   ",
"                     ;<3233321<,>-;-*&%#+o.XX                   ",
"                     ;,33321<,>:;*;&%#+OXO..X                   ",
"                     ;,333<3<,;1;-*&%#+OoX..X                   ",
"                     ;,33321<,>:;*;&%+#OoX..X                   ",
"                     ;,33321<,>:;-*&#%+OoX..X                   ",
"                     ;,33321<,;,;-*%&#+OoX..X                   ",
"                     ;,33321<:1:;-*&%#O#oX..X                   ",
"                     ;,233<3<,>:;-*&%#+OoX..X                   ",
"                     ;,233<3<,>:;-*&%+#OoX..X                   ",
"                    >1,33321<,>;>-*&%#+OoXo..X                  ",
"                   >22333321<,>:;-*&%#+OXoX...XX                ",
"                 ,,32333223311<,,::;-*&%#OoX...XXXO+@##$$%%     ",
"                ,11323322211<<,,>>:;-*&%#+OXo..XXXooO++@##$%%   ",
"                112233322<<<,,>>::-:**&%%#O+XX..XXooooO++@#$$%  ",
"                12233333321<,,>>::;-**&%%&%@@oX.XXooooO++@#$$%  ",
"                 2333322233311<,,>>:;;-**&$O$oo.XoooOO+@@#$$%   ",
"                  ,33222111<<<,><>:;;-*-&%$+OooXOOO+++@#$$%     ",
"                    ::11<<<,,,>>::;;--*&&%#+OO+#$$$%%%%%%       ",
"                         ::::-------&&&&%#OO+#$%%               ",
"================================================================"
};
